Coordinates
version=1
nRows=8
nColumns=36
inDegrees=yes

Units are S.I. units (second, meters, Newtons, ...)
If the header above contains a line with 'inDegrees', this indicates whether rotational values are in degrees (yes) or radians (no).

endheader
time	pelvis_tilt	pelvis_list	pelvis_rotation	pelvis_tx	pelvis_ty	pelvis_tz	hip_flexion_r	hip_adduction_r	hip_rotation_r	knee_angle_r	knee_angle_r_beta	ankle_angle_r	subtalar_angle_r	mtp_angle_r	hip_flexion_l	hip_adduction_l	hip_rotation_l	knee_angle_l	knee_angle_l_beta	ankle_angle_l	subtalar_angle_l	mtp_angle_l	lumbar_extension	lumbar_bending	lumbar_rotation	arm_flex_r	arm_add_r	arm_rot_r	elbow_flex_r	pro_sup_r	arm_flex_l	arm_add_l	arm_rot_l	elbow_flex_l	pro_sup_l
      1.75000000	     -1.23767591	      8.40922870	      2.73839549	      0.68905914	      1.02757419	      0.14792733	     11.91401381	     -2.94131884	      0.30034815	     22.39883538	      0.39093343	     19.53592943	      5.86021922	     -7.49997694	     47.84024760	     -3.95885097	     -3.89505244	     26.26573213	      0.45842351	     11.91934532	     11.22575932	     -7.49997694	    -20.01759591	      2.17516190	     -1.96824752	     45.87925994	      2.51680968	     73.68459325	    127.44012185	    107.33974397	     53.84585176	     -0.51995702	     61.19079004	    132.24291995	    111.82560462
      1.76666670	     -0.90890585	      8.40131027	      2.78137172	      0.68794521	      1.02762659	      0.14772212	     11.41670153	     -2.89183685	      0.28016357	     22.17488316	      0.38702472	     19.41557183	      5.37073853	     -7.49998160	     47.49352646	     -3.87329735	     -3.80118906	     26.41784275	      0.46107834	     12.07672983	     11.20002496	     -7.49998160	    -19.98307190	      2.25223253	     -2.16123068	     45.47229967	      2.46456316	     73.45871427	    127.05639322	    106.96423231	     53.73300596	     -0.58850749	     61.75327253	    132.39921980	    111.97360305
      1.78333330	     -0.74281916	      8.46436557	      2.95547300	      0.68835373	      1.02802645	      0.14788683	     10.99769031	     -2.92508023	      0.31044972	     21.93231298	      0.38279107	     19.36616398	      4.94254647	     -7.49998091	     47.21057059	     -3.74108068	     -3.72955704	     26.58138087	      0.46393262	     12.10235340	     11.00781351	     -7.49998091	    -19.85477268	      2.26898660	     -2.27149843	     45.52955800	      2.15700995	     72.93041926	    126.83118746	    107.63178558	     53.94115691	     -0.67555294	     62.64932432	    132.72585543	    111.54846821
      1.80000000	     -0.58590161	      8.50457175	      2.96632937	      0.68725976	      1.02971411	      0.14749103	     10.72181255	     -2.91023208	      0.39028784	     21.79719891	      0.38043289	     19.30470956	      4.62065781	     -7.49998360	     46.86054586	     -3.68115663	     -3.73986352	     26.55414805	      0.46345731	     11.76027741	     10.70406893	     -7.49998360	    -19.82552690	      2.20541924	     -2.24688743	     45.65422050	      1.81538661	     72.49218516	    126.62887595	    106.94601458	     54.09403890	     -0.68958452	     62.96921068	    132.84230791	    111.67578201
      1.81666670	     -0.36102769	      8.33891161	      2.99198035	      0.68771171	      1.02845717	      0.14784005	     10.67274887	     -2.73518651	      0.25816357	     22.10241206	      0.38575986	     19.38564417	      4.52643461	     -7.49998641	     46.79128502	     -3.78418591	     -3.58293639	     26.83880531	      0.46842552	     11.61246062	     10.65091417	     -7.49998641	    -19.79742166	      2.38611157	     -2.32410502	     45.39151633	      2.00685597	     72.30314319	    126.25970848	    106.58059627	     53.98952004	     -0.85954694	     62.87521882	    133.00855216	    111.44774038
      1.83333330	     -0.18172217	      8.15515000	      3.04696363	      0.68654004	      1.02804514	      0.14738592	     10.64109285	     -2.55306698	      0.05885659	     22.34852374	      0.39005532	     19.56418648	      4.51394749	     -7.49998827	     46.78709150	     -3.87899954	     -3.51981596	     27.06055621	      0.47229580	     11.40000503	     10.39921154	     -7.49998827	    -19.74180588	      2.54789464	     -2.43882825	     45.68105391	      2.05556165	     72.30899550	    126.11753426	    105.93410321	     54.35258158	     -0.88575307	     63.17530457	    133.07429151	    111.42872715
      1.85000000	      0.13030243	      8.05323495	      3.03995677	      0.68664213	      1.02634619	      0.14739002	     10.42059171	     -2.44223461	     -0.13979020	     22.53739026	      0.39335166	     19.84875689	      4.69054800	     -7.49999002	     46.52325904	     -3.92207625	     -3.70731822	     27.16784816	      0.47416840	     11.38094542	     10.41073921	     -7.49999002	    -19.83701277	      2.70512154	     -2.77533295	     46.14511460	      2.72834443	     72.70454254	    125.59458730	    106.06390166	     54.64163405	     -1.18195653	     63.11408563	    133.36157825	    110.35372281
      1.86666670	     -0.08288274	      7.73616066	      3.20487077	      0.68612776	      1.02353397	      0.14706101	     10.99708145	     -2.09589010	     -0.22438376	     23.15543377	      0.40413856	     19.99044009	      4.25099501	     -7.49999159	     47.06257480	     -4.03905093	     -3.48249967	     27.63008018	      0.48223587	     11.47545434	      9.92640729	     -7.49999159	    -19.41403863	      3.05391653	     -2.69512605	     45.93722064	      2.97366217	     72.62316781	    125.58159525	    106.32014223	     54.63413918	     -1.14198935	     62.76275994	    133.27861991	    110.92708336
